<?xml version="1.0" standalone="no"?>
<!DOCTYPE svg PUBLIC "-//W3C//DTD SVG 20010904//EN"
 "http://www.w3.org/TR/2001/REC-SVG-20010904/DTD/svg10.dtd">
<svg version="1.0" xmlns="http://www.w3.org/2000/svg"
 width="1152.000000pt" height="1152.000000pt" viewBox="0 0 1152.000000 1152.000000"
 preserveAspectRatio="xMidYMid meet">

<g transform="translate(0.000000,1152.000000) scale(0.100000,-0.100000)"
fill="#000000" stroke="none">
<path d="M4783 9055 l-23 -24 0 -1466 0 -1465 -250 0 c-221 0 -250 2 -250 16
0 8 -18 33 -40 54 -22 21 -40 44 -40 50 0 6 -22 33 -50 60 -27 27 -50 54 -50
60 0 6 -22 33 -50 60 -28 27 -50 54 -50 60 0 6 -27 38 -60 70 -33 32 -60 64
-60 70 0 6 -22 33 -50 60 -27 27 -50 54 -50 60 0 6 -22 33 -50 60 -27 27 -50
54 -50 60 0 6 -22 33 -50 60 -27 27 -50 54 -50 60 0 6 -22 33 -50 60 -27 27
-50 54 -50 60 0 6 -22 33 -50 60 -27 27 -50 54 -50 60 0 6 -22 33 -50 60 -27
27 -50 54 -50 60 0 6 -27 38 -60 70 -33 32 -60 64 -60 70 0 6 -18 29 -40 50
-22 21 -40 44 -40 50 0 6 -27 38 -60 70 -33 32 -60 64 -60 70 0 6 -22 33 -50
60 -27 27 -50 54 -50 60 0 6 -22 33 -50 60 -27 27 -50 54 -50 60 0 6 -22 33
-50 60 -27 27 -50 54 -50 60 0 6 -22 33 -50 60 -27 27 -50 54 -50 60 0 6 -22
33 -50 60 -27 27 -50 54 -50 60 0 6 -27 38 -60 70 -33 32 -60 64 -60 70 0 6
-18 29 -40 50 -22 21 -40 44 -40 50 0 6 -22 33 -50 60 -27 27 -50 54 -50 60 0
6 -18 29 -40 50 -22 21 -40 44 -40 50 0 6 -31 42 -70 80 -38 38 -70 74 -70 80
0 17 -26 40 -44 40 -9 0 -16 5 -16 10 0 6 -9 10 -20 10 -11 0 -20 -4 -20 -10
0 -5 -7 -10 -16 -10 -45 0 -44 15 -44 -770 l0 -742 40 -38 c22 -21 40 -44 40
-50 0 -6 27 -38 60 -70 33 -32 60 -64 60 -70 0 -6 27 -38 60 -70 33 -32 60
-64 60 -70 0 -6 27 -38 60 -70 33 -32 60 -64 60 -70 0 -6 27 -38 60 -70 33
-32 60 -64 60 -70 0 -6 23 -33 50 -60 28 -27 50 -54 50 -60 0 -6 27 -38 60
-70 33 -32 60 -64 60 -70 0 -6 32 -42 70 -80 39 -38 70 -74 70 -80 0 -6 23
-33 50 -60 28 -27 50 -54 50 -60 0 -6 27 -38 60 -70 33 -32 60 -64 60 -70 0
-6 23 -33 50 -60 28 -27 50 -54 50 -60 0 -6 27 -38 60 -70 33 -32 60 -64 60
-70 0 -6 32 -42 70 -80 49 -48 70 -76 70 -94 0 -13 6 -27 13 -30 10 -5 10 -7
0 -12 -7 -3 -13 -17 -13 -31 0 -16 -14 -38 -40 -63 -22 -21 -40 -44 -40 -50 0
-6 -27 -38 -60 -70 -33 -32 -60 -64 -60 -70 0 -6 -31 -42 -70 -80 -38 -38 -70
-74 -70 -80 0 -6 -31 -42 -70 -80 -38 -38 -70 -74 -70 -80 0 -6 -22 -33 -50
-60 -27 -27 -50 -54 -50 -60 0 -6 -31 -42 -70 -80 -38 -38 -70 -74 -70 -80 0
-6 -36 -46 -80 -90 -44 -44 -80 -84 -80 -90 0 -6 -22 -33 -50 -60 -27 -27 -50
-54 -50 -60 0 -6 -36 -46 -80 -90 -44 -44 -80 -84 -80 -90 0 -6 -22 -33 -50
-60 -27 -27 -50 -54 -50 -60 0 -6 -36 -46 -80 -90 -44 -44 -80 -84 -80 -90 0
-6 -22 -33 -50 -60 -34 -33 -50 -57 -50 -74 0 -14 -4 -26 -10 -26 -7 0 -10
-247 -10 -720 0 -473 3 -720 10 -720 6 0 10 -7 10 -16 0 -27 27 -44 70 -44 35
0 47 6 85 45 25 24 45 49 45 55 0 6 27 38 60 70 33 32 60 64 60 70 0 6 32 42
70 80 39 38 70 74 70 80 0 6 27 38 60 70 33 32 60 64 60 70 0 6 32 42 70 80
39 38 70 74 70 80 0 6 36 46 80 90 44 44 80 84 80 90 0 6 27 38 60 70 33 32
60 64 60 70 0 6 32 42 70 80 39 38 70 76 70 85 0 8 9 15 20 15 11 0 20 7 20
16 0 8 23 37 50 64 28 27 50 54 50 60 0 6 36 46 80 90 44 44 80 84 80 90 0 6
32 42 70 80 39 38 70 74 70 80 0 6 32 42 70 80 39 38 70 74 70 80 0 6 32 42
70 80 39 38 70 76 70 85 0 8 9 15 20 15 11 0 20 7 20 16 0 8 23 37 50 64 28
27 50 54 50 60 0 6 27 38 60 70 33 32 60 66 60 74 0 9 9 16 20 16 11 0 20 7
20 16 0 8 27 42 60 74 33 32 60 64 60 70 0 6 36 46 80 90 44 44 80 84 80 90 0
5 56 66 125 135 l125 125 151 0 c117 0 154 -3 165 -14 12 -13 14 -218 14
-1440 0 -944 3 -1426 10 -1426 6 0 10 -9 10 -20 0 -20 7 -20 506 -20 425 0
508 2 520 14 12 13 14 219 14 1446 0 1227 2 1433 14 1446 12 12 71 14 340 14
l326 0 0 -50 c0 -27 5 -50 10 -50 6 0 10 -27 10 -60 0 -33 4 -60 10 -60 6 0
10 -30 10 -70 0 -40 4 -70 10 -70 6 0 10 -22 10 -50 0 -27 5 -50 10 -50 6 0
10 -18 10 -40 0 -22 5 -40 10 -40 6 0 10 -22 10 -50 0 -27 5 -50 10 -50 6 0
10 -9 10 -20 0 -11 5 -20 10 -20 6 0 10 -18 10 -40 0 -22 5 -40 10 -40 6 0 10
-13 10 -30 0 -16 5 -30 10 -30 6 0 10 -9 10 -20 0 -11 5 -20 10 -20 6 0 10
-18 10 -40 0 -22 5 -40 10 -40 6 0 10 -9 10 -20 0 -11 5 -20 10 -20 6 0 10 -9
10 -20 0 -11 5 -20 10 -20 6 0 10 -13 10 -30 0 -16 5 -30 10 -30 6 0 10 -9 10
-20 0 -11 5 -20 10 -20 6 0 10 -9 10 -20 0 -11 5 -20 10 -20 6 0 10 -9 10 -20
0 -11 5 -20 10 -20 6 0 10 -9 10 -20 0 -11 5 -20 10 -20 6 0 10 -9 10 -20 0
-11 5 -20 10 -20 6 0 10 -9 10 -20 0 -11 5 -20 10 -20 6 0 10 -8 10 -18 0 -10
9 -24 20 -32 11 -8 20 -22 20 -32 0 -10 5 -18 10 -18 6 0 10 -8 10 -18 0 -10
9 -24 20 -32 11 -8 20 -21 20 -28 0 -8 13 -27 30 -42 17 -15 30 -34 30 -42 0
-7 9 -20 20 -28 11 -8 20 -21 20 -28 0 -8 14 -27 30 -42 17 -15 30 -33 30 -39
0 -7 36 -47 80 -91 44 -44 80 -86 80 -95 0 -8 9 -15 20 -15 12 0 20 -7 20 -16
0 -20 24 -44 44 -44 9 0 16 -8 16 -20 0 -11 7 -20 16 -20 8 0 42 -27 74 -60
32 -33 64 -60 70 -60 6 0 29 -18 50 -40 21 -22 45 -40 52 -40 7 0 20 -9 28
-20 8 -11 21 -20 28 -20 8 0 27 -13 42 -30 15 -16 35 -30 44 -30 9 0 16 -4 16
-10 0 -5 7 -10 16 -10 9 0 29 -13 44 -30 15 -16 35 -30 44 -30 9 0 16 -4 16
-10 0 -5 9 -10 20 -10 11 0 20 -4 20 -10 0 -5 9 -10 20 -10 11 0 20 -4 20 -10
0 -5 8 -10 18 -10 10 0 24 -9 32 -20 8 -11 22 -20 32 -20 10 0 18 -4 18 -10 0
-5 9 -10 20 -10 11 0 20 -4 20 -10 0 -5 9 -10 20 -10 11 0 20 -4 20 -10 0 -5
13 -10 28 -10 16 0 34 -8 42 -20 8 -12 26 -20 42 -20 15 0 28 -4 28 -10 0 -5
9 -10 20 -10 11 0 20 -4 20 -10 0 -5 14 -10 30 -10 17 0 30 -4 30 -10 0 -5 14
-10 30 -10 17 0 30 -4 30 -10 0 -5 9 -10 20 -10 11 0 20 -4 20 -10 0 -5 18
-10 40 -10 22 0 40 -4 40 -10 0 -5 14 -10 30 -10 17 0 30 -4 30 -10 0 -5 9
-10 20 -10 11 0 20 -4 20 -10 0 -5 18 -10 40 -10 22 0 40 -4 40 -10 0 -5 18
-10 40 -10 22 0 40 -4 40 -10 0 -5 18 -10 40 -10 22 0 40 -4 40 -10 0 -5 23
-10 50 -10 28 0 50 -4 50 -10 0 -5 18 -10 40 -10 22 0 40 -4 40 -10 0 -6 27
-10 60 -10 33 0 60 -4 60 -10 0 -6 30 -10 70 -10 40 0 70 -4 70 -10 0 -6 30
-10 70 -10 40 0 70 -4 70 -10 0 -6 69 -10 186 -10 147 0 188 3 200 14 11 12
14 69 14 326 0 327 -2 340 -44 340 -9 0 -16 5 -16 10 0 6 -27 10 -60 10 -33 0
-60 4 -60 10 0 6 -33 10 -80 10 -47 0 -80 4 -80 10 0 6 -22 10 -50 10 -27 0
-50 5 -50 10 0 6 -18 10 -40 10 -22 0 -40 5 -40 10 0 6 -27 10 -60 10 -33 0
-60 4 -60 10 0 6 -13 10 -30 10 -16 0 -30 5 -30 10 0 6 -13 10 -30 10 -16 0
-30 5 -30 10 0 6 -18 10 -40 10 -22 0 -40 5 -40 10 0 6 -9 10 -20 10 -11 0
-20 5 -20 10 0 6 -13 10 -30 10 -16 0 -30 5 -30 10 0 6 -13 10 -30 10 -16 0
-30 5 -30 10 0 6 -9 10 -20 10 -11 0 -20 5 -20 10 0 6 -13 10 -28 10 -16 0
-34 8 -42 20 -8 12 -26 20 -42 20 -15 0 -28 5 -28 10 0 6 -8 10 -18 10 -10 0
-24 9 -32 20 -8 11 -22 20 -32 20 -10 0 -18 5 -18 10 0 6 -9 10 -20 10 -11 0
-20 5 -20 10 0 6 -9 10 -20 10 -11 0 -20 5 -20 10 0 6 -8 10 -18 10 -10 0 -24
9 -32 20 -8 11 -21 20 -28 20 -8 0 -27 14 -42 30 -15 17 -33 30 -40 30 -7 0
-25 14 -40 30 -15 17 -33 30 -40 30 -6 0 -38 27 -70 60 -32 33 -64 60 -70 60
-14 0 -140 126 -140 140 0 6 -22 33 -50 60 -27 27 -50 55 -50 62 0 8 -9 20
-20 28 -11 8 -20 21 -20 28 0 8 -14 27 -30 42 -17 15 -30 34 -30 42 0 7 -9 20
-20 28 -11 8 -20 22 -20 32 0 10 -4 18 -10 18 -5 0 -10 8 -10 18 0 10 -9 24
-20 32 -11 8 -20 26 -20 40 0 14 -9 32 -20 40 -11 8 -20 22 -20 32 0 10 -4 18
-10 18 -5 0 -10 9 -10 20 0 11 -4 20 -10 20 -5 0 -10 9 -10 20 0 11 -4 20 -10
20 -5 0 -10 14 -10 30 0 17 -4 30 -10 30 -5 0 -10 9 -10 20 0 11 -4 20 -10 20
-5 0 -10 14 -10 30 0 17 -4 30 -10 30 -5 0 -10 14 -10 30 0 17 -4 30 -10 30
-5 0 -10 14 -10 30 0 17 -4 30 -10 30 -5 0 -10 18 -10 40 0 22 -4 40 -10 40
-5 0 -10 14 -10 30 0 17 -4 30 -10 30 -5 0 -10 18 -10 40 0 22 -4 40 -10 40
-6 0 -10 27 -10 60 0 33 -4 60 -10 60 -6 0 -10 27 -10 60 0 33 -4 60 -10 60
-6 0 -10 33 -10 80 0 47 -4 80 -10 80 -6 0 -10 107 -10 300 0 193 4 300 10
300 6 0 10 40 10 100 0 60 4 100 10 100 6 0 10 23 10 50 0 28 5 50 10 50 6 0
10 30 10 70 0 40 4 70 10 70 6 0 10 14 10 30 0 17 5 30 10 30 6 0 10 18 10 40
0 22 5 40 10 40 6 0 10 18 10 40 0 22 5 40 10 40 6 0 10 14 10 30 0 17 5 30
10 30 6 0 10 14 10 30 0 17 5 30 10 30 6 0 10 9 10 20 0 11 5 20 10 20 6 0 10
14 10 30 0 17 5 30 10 30 6 0 10 9 10 20 0 11 5 20 10 20 6 0 10 14 10 30 0
17 5 30 10 30 6 0 10 9 10 20 0 11 5 20 10 20 6 0 10 8 10 18 0 10 9 24 20 32
11 8 20 26 20 40 0 14 9 32 20 40 11 8 20 22 20 32 0 10 5 18 10 18 6 0 10 8
10 18 0 10 9 24 20 32 11 8 20 21 20 30 0 9 9 22 20 30 11 8 20 21 20 28 0 8
14 27 30 42 17 15 30 33 30 40 0 6 18 29 40 50 22 21 40 43 40 49 0 15 246
261 261 261 6 0 28 18 49 40 21 22 44 40 50 40 7 0 25 14 40 30 15 17 34 30
42 30 7 0 20 9 28 20 8 11 21 20 30 20 9 0 22 9 30 20 8 11 22 20 32 20 10 0
18 5 18 10 0 6 8 10 18 10 10 0 24 9 32 20 8 11 22 20 32 20 10 0 18 5 18 10
0 6 9 10 20 10 11 0 20 5 20 10 0 6 9 10 20 10 11 0 20 5 20 10 0 6 14 10 30
10 17 0 30 5 30 10 0 6 9 10 20 10 11 0 20 5 20 10 0 6 9 10 20 10 11 0 20 5
20 10 0 6 14 10 30 10 17 0 30 5 30 10 0 6 9 10 20 10 11 0 20 5 20 10 0 6 14
10 30 10 17 0 30 5 30 10 0 6 9 10 20 10 11 0 20 5 20 10 0 6 14 10 30 10 17
0 30 5 30 10 0 6 23 10 50 10 28 0 50 5 50 10 0 6 14 10 30 10 17 0 30 5 30
10 0 6 23 10 50 10 28 0 50 5 50 10 0 6 18 10 40 10 22 0 40 5 40 10 0 6 23
10 50 10 28 0 50 5 50 10 0 6 33 10 80 10 47 0 80 4 80 10 0 6 20 10 45 10 35
0 52 6 70 25 l25 24 0 301 0 301 -25 24 c-22 23 -32 25 -110 25 -50 0 -85 -4
-85 -10 0 -6 -30 -10 -70 -10 -40 0 -70 -4 -70 -10 0 -6 -30 -10 -70 -10 -40
0 -70 -4 -70 -10 0 -6 -27 -10 -60 -10 -33 0 -60 -4 -60 -10 0 -5 -18 -10 -40
-10 -22 0 -40 -4 -40 -10 0 -6 -27 -10 -60 -10 -33 0 -60 -4 -60 -10 0 -5 -13
-10 -30 -10 -16 0 -30 -4 -30 -10 0 -5 -13 -10 -30 -10 -16 0 -30 -4 -30 -10
0 -5 -22 -10 -50 -10 -27 0 -50 -4 -50 -10 0 -5 -13 -10 -30 -10 -16 0 -30 -4
-30 -10 0 -5 -13 -10 -30 -10 -16 0 -30 -4 -30 -10 0 -5 -13 -10 -30 -10 -16
0 -30 -4 -30 -10 0 -5 -9 -10 -20 -10 -11 0 -20 -4 -20 -10 0 -5 -13 -10 -30
-10 -16 0 -30 -4 -30 -10 0 -5 -13 -10 -30 -10 -16 0 -30 -4 -30 -10 0 -5 -9
-10 -20 -10 -11 0 -20 -4 -20 -10 0 -5 -13 -10 -30 -10 -16 0 -30 -4 -30 -10
0 -5 -9 -10 -20 -10 -11 0 -20 -4 -20 -10 0 -5 -9 -10 -20 -10 -11 0 -20 -4
-20 -10 0 -5 -9 -10 -20 -10 -11 0 -20 -4 -20 -10 0 -5 -9 -10 -20 -10 -11 0
-20 -4 -20 -10 0 -5 -9 -10 -20 -10 -11 0 -20 -4 -20 -10 0 -5 -9 -10 -20 -10
-11 0 -20 -4 -20 -10 0 -5 -9 -10 -20 -10 -11 0 -20 -4 -20 -10 0 -5 -9 -10
-20 -10 -11 0 -20 -4 -20 -10 0 -5 -9 -10 -20 -10 -11 0 -20 -4 -20 -10 0 -5
-8 -10 -18 -10 -10 0 -24 -9 -32 -20 -8 -11 -21 -20 -30 -20 -9 0 -22 -9 -30
-20 -8 -11 -22 -20 -32 -20 -10 0 -18 -4 -18 -10 0 -5 -7 -10 -16 -10 -9 0
-29 -13 -44 -30 -15 -16 -34 -30 -42 -30 -7 0 -20 -9 -28 -20 -8 -11 -21 -20
-28 -20 -8 0 -27 -13 -42 -30 -15 -16 -33 -30 -40 -30 -6 0 -33 -22 -60 -50
-27 -27 -54 -50 -59 -50 -17 0 -341 -328 -341 -345 0 -8 -9 -15 -20 -15 -12 0
-20 -7 -20 -16 0 -9 -13 -29 -30 -44 -16 -15 -30 -33 -30 -40 0 -7 -14 -25
-30 -40 -16 -15 -30 -34 -30 -42 0 -7 -9 -20 -20 -28 -11 -8 -20 -21 -20 -30
0 -9 -9 -22 -20 -30 -11 -8 -20 -21 -20 -30 0 -9 -9 -22 -20 -30 -11 -8 -20
-22 -20 -32 0 -10 -4 -18 -10 -18 -5 0 -10 -8 -10 -18 0 -10 -9 -24 -20 -32
-11 -8 -20 -22 -20 -32 0 -10 -4 -18 -10 -18 -5 0 -10 -9 -10 -20 0 -11 -4
-20 -10 -20 -5 0 -10 -8 -10 -18 0 -10 -9 -24 -20 -32 -11 -8 -20 -22 -20 -32
0 -10 -4 -18 -10 -18 -5 0 -10 -9 -10 -20 0 -11 -4 -20 -10 -20 -5 0 -10 -13
-10 -30 0 -16 -4 -30 -10 -30 -5 0 -10 -9 -10 -20 0 -11 -4 -20 -10 -20 -5 0
-10 -9 -10 -20 0 -11 -4 -20 -10 -20 -5 0 -10 -13 -10 -30 0 -16 -4 -30 -10
-30 -5 0 -10 -9 -10 -20 0 -11 -4 -20 -10 -20 -5 0 -10 -13 -10 -30 0 -16 -4
-30 -10 -30 -5 0 -10 -13 -10 -30 0 -16 -4 -30 -10 -30 -5 0 -10 -13 -10 -30
0 -16 -4 -30 -10 -30 -5 0 -10 -18 -10 -40 0 -22 -4 -40 -10 -40 -5 0 -10 -9
-10 -20 0 -11 -4 -20 -10 -20 -5 0 -10 -22 -10 -50 0 -27 -4 -50 -10 -50 -5 0
-10 -18 -10 -40 0 -22 -4 -40 -10 -40 -5 0 -10 -18 -10 -40 0 -22 -4 -40 -10
-40 -6 0 -10 -30 -10 -70 0 -40 -4 -70 -10 -70 -5 0 -10 -22 -10 -50 l0 -50
-336 0 c-277 0 -338 2 -350 14 -12 12 -14 165 -14 1040 l0 1026 715 0 716 0
24 25 25 24 0 401 c0 422 -1 430 -44 430 -9 0 -16 5 -16 10 0 7 -415 10 -1227
9 l-1228 0 -22 -24z"/>
</g>
</svg>
